<mxfile host="app.diagrams.net" modified="2023-11-08T03:45:01.424Z" agent="Mozilla/5.0 (Windows NT 10.0; Win64; x64) AppleWebKit/537.36 (KHTML, like Gecko) Chrome/119.0.0.0 Safari/537.36 Edg/119.0.0.0" etag="6che4_Oy_msb4xlCS7Nr" version="22.0.8" type="device">
  <diagram name="PÃ¡gina-1" id="DvrezsnRqu0iratG27p7">
    <mxGraphModel dx="1155" dy="669" grid="1" gridSize="10" guides="1" tooltips="1" connect="1" arrows="1" fold="1" page="1" pageScale="1" pageWidth="827" pageHeight="1169" math="0" shadow="0">
      <root>
        <mxCell id="0" />
        <mxCell id="1" parent="0" />
        <mxCell id="-Qe9AirabRPXCxsYwUze-6" value="" style="image;points=[];aspect=fixed;html=1;align=center;shadow=0;dashed=0;image=img/lib/allied_telesis/computer_and_terminals/Smartphone.svg;" vertex="1" parent="1">
          <mxGeometry x="210" y="430" width="27.5" height="60" as="geometry" />
        </mxCell>
        <mxCell id="-Qe9AirabRPXCxsYwUze-11" value="" style="image;aspect=fixed;perimeter=ellipsePerimeter;html=1;align=center;shadow=0;dashed=0;spacingTop=3;image=img/lib/active_directory/internet_globe.svg;" vertex="1" parent="1">
          <mxGeometry x="395" y="435" width="50" height="50" as="geometry" />
        </mxCell>
        <mxCell id="-Qe9AirabRPXCxsYwUze-12" value="" style="endArrow=none;html=1;rounded=0;" edge="1" parent="1" source="-Qe9AirabRPXCxsYwUze-11" target="-Qe9AirabRPXCxsYwUze-6">
          <mxGeometry width="50" height="50" relative="1" as="geometry">
            <mxPoint x="400" y="430" as="sourcePoint" />
            <mxPoint x="450" y="380" as="targetPoint" />
          </mxGeometry>
        </mxCell>
        <mxCell id="-Qe9AirabRPXCxsYwUze-14" value="" style="image;html=1;image=img/lib/clip_art/networking/Cloud_Computer_128x128.png" vertex="1" parent="1">
          <mxGeometry x="359" y="570" width="120" height="120" as="geometry" />
        </mxCell>
        <mxCell id="-Qe9AirabRPXCxsYwUze-15" value="" style="endArrow=none;html=1;rounded=0;" edge="1" parent="1" source="-Qe9AirabRPXCxsYwUze-14" target="-Qe9AirabRPXCxsYwUze-11">
          <mxGeometry width="50" height="50" relative="1" as="geometry">
            <mxPoint x="420" y="570" as="sourcePoint" />
            <mxPoint x="470" y="520" as="targetPoint" />
          </mxGeometry>
        </mxCell>
        <mxCell id="-Qe9AirabRPXCxsYwUze-16" value="" style="image;aspect=fixed;perimeter=ellipsePerimeter;html=1;align=center;shadow=0;dashed=0;spacingTop=3;image=img/lib/active_directory/internet_globe.svg;" vertex="1" parent="1">
          <mxGeometry x="395" y="750" width="50" height="50" as="geometry" />
        </mxCell>
        <mxCell id="-Qe9AirabRPXCxsYwUze-17" value="" style="endArrow=none;html=1;rounded=0;" edge="1" parent="1" source="-Qe9AirabRPXCxsYwUze-16" target="-Qe9AirabRPXCxsYwUze-14">
          <mxGeometry width="50" height="50" relative="1" as="geometry">
            <mxPoint x="445" y="750" as="sourcePoint" />
            <mxPoint x="495" y="700" as="targetPoint" />
          </mxGeometry>
        </mxCell>
        <mxCell id="-Qe9AirabRPXCxsYwUze-18" value="" style="rounded=1;whiteSpace=wrap;html=1;labelBackgroundColor=none;noLabel=1;fillColor=none;" vertex="1" parent="1">
          <mxGeometry x="270" y="860" width="540" height="140" as="geometry" />
        </mxCell>
        <mxCell id="-Qe9AirabRPXCxsYwUze-19" value="" style="shape=datastore;whiteSpace=wrap;html=1;" vertex="1" parent="1">
          <mxGeometry x="359" y="910" width="36" height="40" as="geometry" />
        </mxCell>
        <mxCell id="-Qe9AirabRPXCxsYwUze-21" value="" style="image;html=1;image=img/lib/clip_art/computers/Server_Tower_128x128.png" vertex="1" parent="1">
          <mxGeometry x="300" y="870" width="80" height="80" as="geometry" />
        </mxCell>
        <mxCell id="-Qe9AirabRPXCxsYwUze-22" value="&lt;font color=&quot;#0f0f0f&quot;&gt;Services&lt;/font&gt;" style="html=1;whiteSpace=wrap;strokeColor=none;fillColor=#0079D6;labelPosition=center;verticalLabelPosition=middle;verticalAlign=top;align=center;fontSize=12;outlineConnect=0;spacingTop=-6;fontColor=#FFFFFF;sketch=0;shape=mxgraph.sitemap.services;" vertex="1" parent="1">
          <mxGeometry x="520" y="920" width="70" height="40" as="geometry" />
        </mxCell>
        <mxCell id="-Qe9AirabRPXCxsYwUze-23" value="" style="image;html=1;image=img/lib/clip_art/computers/Server_Tower_128x128.png" vertex="1" parent="1">
          <mxGeometry x="460" y="870" width="80" height="80" as="geometry" />
        </mxCell>
        <mxCell id="-Qe9AirabRPXCxsYwUze-24" value="&lt;font color=&quot;#0a0a0a&quot;&gt;Web services&lt;/font&gt;" style="html=1;whiteSpace=wrap;strokeColor=none;fillColor=#0079D6;labelPosition=center;verticalLabelPosition=middle;verticalAlign=top;align=center;fontSize=12;outlineConnect=0;spacingTop=-6;fontColor=#FFFFFF;sketch=0;shape=mxgraph.sitemap.services;spacingBottom=0;" vertex="1" parent="1">
          <mxGeometry x="445" y="640" width="85" height="40" as="geometry" />
        </mxCell>
        <mxCell id="-Qe9AirabRPXCxsYwUze-25" value="" style="image;points=[];aspect=fixed;html=1;align=center;shadow=0;dashed=0;image=img/lib/allied_telesis/computer_and_terminals/Personal_Computer_with_Server.svg;" vertex="1" parent="1">
          <mxGeometry x="670" y="887.6" width="62.400000000000006" height="62.400000000000006" as="geometry" />
        </mxCell>
        <mxCell id="-Qe9AirabRPXCxsYwUze-26" value="" style="endArrow=none;html=1;rounded=0;" edge="1" parent="1" source="-Qe9AirabRPXCxsYwUze-23" target="-Qe9AirabRPXCxsYwUze-25">
          <mxGeometry width="50" height="50" relative="1" as="geometry">
            <mxPoint x="840" y="930" as="sourcePoint" />
            <mxPoint x="890" y="880" as="targetPoint" />
            <Array as="points">
              <mxPoint x="620" y="910" />
            </Array>
          </mxGeometry>
        </mxCell>
        <mxCell id="-Qe9AirabRPXCxsYwUze-27" value="" style="endArrow=none;html=1;rounded=0;" edge="1" parent="1" target="-Qe9AirabRPXCxsYwUze-21">
          <mxGeometry width="50" height="50" relative="1" as="geometry">
            <mxPoint x="490" y="920" as="sourcePoint" />
            <mxPoint x="890" y="880" as="targetPoint" />
          </mxGeometry>
        </mxCell>
        <mxCell id="-Qe9AirabRPXCxsYwUze-28" value="" style="endArrow=none;html=1;rounded=0;" edge="1" parent="1" source="-Qe9AirabRPXCxsYwUze-21" target="-Qe9AirabRPXCxsYwUze-16">
          <mxGeometry width="50" height="50" relative="1" as="geometry">
            <mxPoint x="840" y="930" as="sourcePoint" />
            <mxPoint x="890" y="880" as="targetPoint" />
          </mxGeometry>
        </mxCell>
        <mxCell id="-Qe9AirabRPXCxsYwUze-30" value="Internet" style="text;strokeColor=none;align=center;fillColor=none;html=1;verticalAlign=middle;whiteSpace=wrap;rounded=0;" vertex="1" parent="1">
          <mxGeometry x="445" y="760" width="60" height="30" as="geometry" />
        </mxCell>
        <mxCell id="-Qe9AirabRPXCxsYwUze-31" value="Internet" style="text;strokeColor=none;align=center;fillColor=none;html=1;verticalAlign=middle;whiteSpace=wrap;rounded=0;" vertex="1" parent="1">
          <mxGeometry x="445" y="445" width="60" height="30" as="geometry" />
        </mxCell>
        <mxCell id="-Qe9AirabRPXCxsYwUze-32" value="Banco de Dados" style="text;strokeColor=none;align=center;fillColor=none;html=1;verticalAlign=middle;whiteSpace=wrap;rounded=0;" vertex="1" parent="1">
          <mxGeometry x="310" y="960" width="60" height="30" as="geometry" />
        </mxCell>
        <mxCell id="-Qe9AirabRPXCxsYwUze-33" value="Administradores" style="text;strokeColor=none;align=center;fillColor=none;html=1;verticalAlign=middle;whiteSpace=wrap;rounded=0;" vertex="1" parent="1">
          <mxGeometry x="660" y="950" width="90" height="30" as="geometry" />
        </mxCell>
        <mxCell id="-Qe9AirabRPXCxsYwUze-34" value="Clientes" style="text;strokeColor=none;align=center;fillColor=none;html=1;verticalAlign=middle;whiteSpace=wrap;rounded=0;" vertex="1" parent="1">
          <mxGeometry x="193.75" y="500" width="60" height="30" as="geometry" />
        </mxCell>
        <mxCell id="-Qe9AirabRPXCxsYwUze-35" value="" style="image;points=[];aspect=fixed;html=1;align=center;shadow=0;dashed=0;image=img/lib/allied_telesis/computer_and_terminals/Smartphone.svg;" vertex="1" parent="1">
          <mxGeometry x="590" y="470" width="27.5" height="60" as="geometry" />
        </mxCell>
        <mxCell id="-Qe9AirabRPXCxsYwUze-36" value="Prestadores" style="text;strokeColor=none;align=center;fillColor=none;html=1;verticalAlign=middle;whiteSpace=wrap;rounded=0;" vertex="1" parent="1">
          <mxGeometry x="560" y="530" width="60" height="30" as="geometry" />
        </mxCell>
        <mxCell id="-Qe9AirabRPXCxsYwUze-37" value="" style="endArrow=none;html=1;rounded=0;" edge="1" parent="1" source="-Qe9AirabRPXCxsYwUze-11" target="-Qe9AirabRPXCxsYwUze-35">
          <mxGeometry width="50" height="50" relative="1" as="geometry">
            <mxPoint x="250" y="470" as="sourcePoint" />
            <mxPoint x="300" y="420" as="targetPoint" />
            <Array as="points">
              <mxPoint x="510" y="490" />
            </Array>
          </mxGeometry>
        </mxCell>
      </root>
    </mxGraphModel>
  </diagram>
</mxfile>
